<?xml version="1.0" encoding="utf-8"?>
<!-- Generator: Adobe Illustrator 19.0.1, SVG Export Plug-In . SVG Version: 6.00 Build 0)  -->
<svg version="1.1" id="Layer_1" xmlns="http://www.w3.org/2000/svg" xmlns:xlink="http://www.w3.org/1999/xlink" x="0px" y="0px"
	 viewBox="-255 334 100 125" style="enable-background:new -255 334 100 125;" xml:space="preserve">
<g>
	<path d="M-204.1,347.3v32.6c0,0,7.2-5.2,14.9-6.3C-189.2,373.6-204.1,360.7-204.1,347.3z"/>
</g>
<g>
	<path d="M-180.1,347.3v32.6c0,0,7.2-5.2,14.9-6.3C-165.3,373.6-180.1,360.7-180.1,347.3z"/>
</g>
<g>
	<path d="M-221.4,392.9v3.2c-15.5,1.6-11.8,11.9-11.8,11.9c3.9-0.8,8-0.7,11.8-0.4v5l0.8,0.2v-5c7.1,0.8,12.7,2.8,12.7,2.8
		c-4.9-5.2-1.6-14.1-1.6-14.1c-4.5-0.5-8.1-0.6-11.1-0.4v-3.1c5-0.1,9.6,0.6,9.6,0.6c-3.3-3.7-0.8-10.8-0.8-10.8
		c-3.5-0.4-6.3-0.4-8.7-0.1v-3c4.1-0.2,7.8,1,7.8,1c-4.2-3.1-1.6-9.4-1.6-9.4c-2.5-0.1-4.5,0.2-6.2,0.6v-2.9
		c2.6-0.3,5.2,0.1,5.2,0.1c-2.6-3.6-0.7-8.3-0.7-8.3c-1.8,0.1-3.2,0.5-4.4,0.9v-6.9h-0.8v7.3c-6.6,2.8-4.3,9.3-4.3,9.3
		c0.8-1.3,2.6-1.9,4.3-2.2v3c-8.7,2.6-7,10.7-7,10.7c1.8-2,4.4-2.8,7-3v3c-13.2,1.9-9.9,12.5-9.9,12.5
		C-228.9,393.6-225.1,393-221.4,392.9z"/>
</g>
<g>
	<path d="M-211.8,354.4c0-1.3,3-0.2,3-1.6c0-1.6,3.7-1.5,3.7-1.5v-3.1c-2.2,0-4.5,1.5-4.5,2.8c0,1.3-3.4,1.5-3.4,3
		c0,0.7-1.6,1.6-2.7,1.6C-215.8,355.5-211.8,355.5-211.8,354.4z"/>
</g>
<g>
	<path d="M-187.9,358c0-1.3,3-0.2,3-1.6c0-1.6,3.7-1.5,3.7-1.5v-3.1c-2.2,0-4.5,1.5-4.5,2.8c0,1.3-3.4,1.5-3.4,3
		c0,0.7-1.6,1.6-2.7,1.6C-191.9,359.1-187.9,359.2-187.9,358z"/>
</g>
<g>
	<path d="M-175.8,407.8l-3,0.1c0,0-0.5,0-1.3,0.1v5.4c9.6-8.1,25.1-6.3,25.1-6.3c-10.4-9.9-10-30.1-10-30.1
		c-6.2,3.4-15.1,4.8-15.1,4.8v21.6c0.6,0.8,1.3,1.6,2.1,2.4L-175.8,407.8z"/>
</g>
<g>
	<path d="M-187.7,376.6c-6.7,3.7-16.3,5.2-16.3,5.2v31.8c9.7-7,24-7.4,24-7.4C-191.3,395.6-187.7,376.6-187.7,376.6z"/>
</g>
<g>
	<path d="M-180.9,415.8c-3.3,0-31.1,0-31.1,0l-19.1-3.2l-23.8-6.5l22.4,8.4l6.5,6.3h64c0,0,5.2-3.6,5.2-8.1h-14.8
		C-171.6,412.6-177.6,415.8-180.9,415.8z"/>
</g>
<g>
	<path d="M-239.7,395.5c-0.8,2.9-0.7,4.8-0.7,4.9l0.1,1.7l-1.7-0.4c-0.8-0.2-1.6-0.3-2.6-0.3c-0.2,0-0.3,0-0.5,0l-3.3,3.7
		c0,0,7.6-1.6,9.6,0.9c0,0-2.2-8,6.5-19L-239.7,395.5z"/>
</g>
<g>
	<path d="M-241.7,400.5c0,0-0.7-9.3,9.5-19l-0.3,0.3l-21.6,20.3C-254.1,402.1-247,399.3-241.7,400.5z"/>
</g>
</svg>
