<?xml version="1.0" encoding="utf-8"?>
<!-- Generator: Adobe Illustrator 19.0.1, SVG Export Plug-In . SVG Version: 6.00 Build 0)  -->
<svg version="1.1" id="Layer_1" xmlns="http://www.w3.org/2000/svg" xmlns:xlink="http://www.w3.org/1999/xlink" x="0px" y="0px"
	 viewBox="-255 334 100 125" style="enable-background:new -255 334 100 125;" xml:space="preserve">
<g>
	<path d="M-200.5,397v-3.1"/>
	<path d="M-201.4,383.6l0,10.2v3.2v11.5v6l0.8,0.2v-6v-25.1"/>
</g>
<g>
	<path d="M-193,399.3c-2.3-4.6-5.8-15.3-5.8-15.3v30.6c7.7-3.2,15.3-1.9,15.3-1.9C-190.6,405.9-190.7,403.9-193,399.3z"/>
</g>
<g>
	<path d="M-190.9,415.8c-3.3,0-11.1,0-11.1,0l-12.7-0.4l-5.9-1.5l1.3,2.3l3.3,4.6h34c0,0,3.2-1.6,3.2-6.1h-4.8
		C-183.6,414.6-187.6,415.8-190.9,415.8z"/>
</g>
<g>
	<path d="M-206,413.2c0.5-6.9,0.1-15.8,3.9-28.2l-0.2,0.3l-16.1,26.9C-218.5,412.2-211.4,413.2-206,413.2z"/>
</g>
</svg>
