<?xml version="1.0" encoding="utf-8"?>
<!-- Generator: Adobe Illustrator 19.0.1, SVG Export Plug-In . SVG Version: 6.00 Build 0)  -->
<svg version="1.1" id="Layer_1" xmlns="http://www.w3.org/2000/svg" xmlns:xlink="http://www.w3.org/1999/xlink" x="0px" y="0px"
	 viewBox="-255 334 100 125" style="enable-background:new -255 334 100 125;" xml:space="preserve">
<g>
	<path d="M-198.8,379.1V393c0,0,5.1-2.8,9.5-4c0,0-4.2-2-5.9-3.6S-198.8,379.1-198.8,379.1z"/>
</g>
<g>
	<path d="M-200.5,379.7"/>
	<path d="M-200.5,397v-3.1"/>
	<path d="M-200.5,383.5v-4.9h-0.8v5l0,10.2v3.2v11.5v5l0.8,0.2v-5V383.5z"/>
</g>
<g>
	<path d="M-188.4,390.9c-4.3,2.3-10.5,3.3-10.5,3.3v20.4c6.2-4.5,15.3-4.7,15.3-4.7C-190.6,403-188.4,390.9-188.4,390.9z"/>
</g>
<g>
	<path d="M-190.9,415.8c-3.3,0-11.1,0-11.1,0l-19.1-3.2l-2.8-0.4l1.4,2.3l6.5,6.3h34c0,0,5.2-3.6,5.2-8.1h-4.8
		C-181.6,412.6-187.6,415.8-190.9,415.8z"/>
</g>
<g>
	<path d="M-207.4,400.4c-0.2,3,0.4,4.9,0.4,4.9l0.5,1.6l-1.7,0c-0.8,0-1.7,0.1-2.6,0.3c-0.1,0-0.3,0.1-0.4,0.1l-2.4,4.3
		c0,0,7.1-3.2,9.6-1.2c0,0-3.9-7.3,2.1-20L-207.4,400.4z"/>
</g>
<g>
	<path d="M-208.2,405.7c0,0-2.8-9,5.1-20.6l-0.2,0.3l-16.5,24.6C-219.9,410.1-213.6,405.8-208.2,405.7z"/>
</g>
</svg>
